<?xml version="1.0" standalone="no"?>
<!DOCTYPE svg PUBLIC "-//W3C//DTD SVG 20010904//EN"
 "http://www.w3.org/TR/2001/REC-SVG-20010904/DTD/svg10.dtd">
<svg version="1.0" xmlns="http://www.w3.org/2000/svg"
 width="266.000000pt" height="266.000000pt" viewBox="0 0 266.000000 266.000000"
 preserveAspectRatio="xMidYMid meet">
<metadata>
Created by potrace 1.14, written by Peter Selinger 2001-2017
</metadata>
<g transform="translate(0.000000,266.000000) scale(0.100000,-0.100000)"
fill="#000000" stroke="none">
<path d="M804 2026 c-3 -7 -4 -33 -2 -57 l3 -44 232 -3 233 -2 2 -418 3 -417
50 0 50 0 0 475 0 475 -283 3 c-235 2 -283 0 -288 -12z"/>
<path d="M1757 2033 c-4 -3 -7 -300 -7 -660 l0 -653 -420 0 -420 0 -2 417 -3
418 -50 0 -50 0 0 -470 0 -470 525 0 525 0 3 699 c1 508 -1 703 -9 712 -12 14
-80 19 -92 7z"/>
</g>
</svg>
